<?xml version="1.0" encoding="UTF-8" standalone="no"?>
<!-- Created with Inkscape (http://www.inkscape.org/) -->

<svg
   version="1.1"
   id="svg1"
   width="683.85773"
   height="720.55603"
   viewBox="0 0 683.85773 720.55603"
   xmlns="http://www.w3.org/2000/svg"
   xmlns:svg="http://www.w3.org/2000/svg">
  <defs
     id="defs1" />
  <g
     id="g1"
     transform="translate(-255.55145,-92.979248)">
    <path
       style="fill:#000000"
       d="m 285.29855,942.08303 c -4.16961,-2.59777 -5.8339,-6.00294 -7.17288,-14.67584 -2.89983,-18.78301 -1.97838,-41.61049 2.24629,-55.648 1.3015,-4.32456 1.23014,-5.30689 -0.94216,-12.96908 -4.92347,-17.36617 -5.91411,-25.79644 -5.90956,-50.29011 0.005,-25.58522 1.1442,-33.75142 8.06384,-57.79212 l 3.49521,-12.1433 -3.52089,-7.70246 c -14.81421,-32.40827 -15.30482,-72.4877 -1.28934,-105.33008 l 3.40033,-7.96795 -3.73074,-8.07517 C 268.07759,583.8157 266.72839,558.6168 275.54621,527.45184 l 2.56009,-9.04816 -4.07021,-6.95184 c -17.64128,-30.13099 -19.54451,-67.19663 -4.96647,-96.72275 l 2.84929,-5.77091 -5.26127,-7.72909 c -3.45414,-5.07431 -6.27392,-10.8204 -8.20946,-16.72909 -2.64769,-8.08269 -2.94243,-10.27405 -2.89177,-21.5 0.0487,-10.78387 0.4227,-13.59832 2.72441,-20.5 3.47059,-10.40655 8.69744,-19.12355 16.58455,-27.65863 l 6.36537,-6.88832 0.13463,-13.74839 c 0.13153,-13.43137 0.21135,-13.90422 3.46188,-20.50616 4.37036,-8.87636 11.42534,-15.8325 20.20696,-19.92386 4.92402,-2.29409 6.82186,-3.68229 6.5035,-4.75703 C 311.29046,248.18292 310.41038,243.45 309.58199,238.5 302.31252,195.06194 306.21894,153.74002 320.45318,123.50488 335.2231,92.131921 356.29062,84.307015 375.65984,103 c 17.44904,16.83985 31.10411,50.34831 35.45346,87 0.6853,5.775 1.36425,10.66159 1.50877,10.85909 0.14453,0.1975 1.52619,-0.53352 3.07035,-1.62449 9.11037,-6.43659 29.27145,-14.22232 43.63541,-16.85096 10.78169,-1.97308 32.75661,-1.95294 43.84311,0.0402 15.09446,2.71366 30.9914,8.56913 42.39018,15.61396 1.94924,1.2047 3.74909,1.98535 3.99967,1.73478 0.25057,-0.25057 0.91345,-4.23941 1.47306,-8.86407 5.54449,-45.81993 24.72101,-85.43754 46.19416,-95.434528 23.77846,-11.070238 46.50754,15.417888 55.98466,65.243678 1.95248,10.26514 2.23842,15.00165 2.22054,36.78237 -0.0176,21.44886 -0.33453,26.70455 -2.23107,37 -1.2158,6.6 -2.44803,12.9 -2.73829,14 -0.43525,1.64947 0.50484,2.4769 5.36381,4.72102 16.78026,7.74996 26.168,24.9131 24.83556,45.40557 -0.54877,8.43978 -0.4341,9.26758 1.52373,11 4.12248,3.64785 13.95443,16.71059 16.74946,22.25335 11.95071,23.69918 9.8489,51.70815 -5.36499,71.4943 l -3.74789,4.87425 4.01946,10.12575 c 5.97584,15.05427 7.64656,24.33815 7.58091,42.12576 -0.0379,10.27578 -0.56315,17.04716 -1.66765,21.5 -2.66391,10.73955 -7.55319,23.19829 -12.39558,31.5861 l -4.5688,7.9139 2.26067,16 c 1.60137,11.33383 2.34605,21.97853 2.55345,36.5 0.3461,24.23257 -1.17814,38.7707 -6.2681,59.78482 -1.33122,5.49601 -1.34078,6.56285 -0.0762,8.5 2.56945,3.93597 8.56675,20.07675 9.27611,24.96518 0.3791,2.6125 1.04538,4.75 1.48062,4.75 0.43523,0 6.57164,-0.66434 13.63645,-1.47632 103.58481,-11.90522 180.31953,26.54425 221.22661,110.85003 11.84462,24.41068 14.90882,35.88555 10.79622,40.42993 -4.38958,4.85042 -12.48081,5.26083 -16.72757,0.84846 -1.20977,-1.25695 -3.95381,-6.98038 -6.09787,-12.71873 -22.86101,-61.1853 -64.92462,-99.97991 -123.8885,-114.26045 -17.12749,-4.14814 -27.39494,-4.96554 -55.18925,-4.39367 -18.88369,0.38852 -28.53363,1.05111 -38.16367,2.62038 -16.6366,2.71104 -18.77558,2.67408 -22.41382,-0.38729 -2.58327,-2.17368 -3.1744,-3.71983 -4.68345,-12.25 -2.1354,-12.07073 -4.55033,-19.50049 -9.60099,-29.5384 -4.34373,-8.63292 -4.74329,-12.119 -2.37532,-20.72394 8.02958,-29.17859 9.24503,-63.81965 3.3859,-96.5 -3.07313,-17.14097 -3.08297,-17.04939 2.87377,-26.76282 11.26557,-18.37038 14.75149,-30.25071 14.59385,-49.73718 -0.13318,-16.46159 -2.14415,-24.92908 -9.39943,-39.57765 -6.95397,-14.04021 -6.83492,-15.03162 3.04564,-25.36393 8.61347,-9.00729 13.22748,-24.04034 11.10713,-36.18855 -1.95851,-11.221 -7.18579,-20.08971 -18.31356,-31.0712 -11.05491,-10.90956 -11.35699,-11.74014 -8.20873,-22.56979 3.76993,-12.96809 -1.53577,-25.48586 -13.08097,-30.86201 -5.57986,-2.59832 -10.37248,-2.94167 -17.16982,-1.23008 -3.37853,0.85072 -5.47531,0.84894 -8.33244,-0.007 -4.17778,-1.25169 -5.74175,-3.18026 -8.44176,-10.40974 -2.25705,-6.04344 -10.0669,-14.14893 -16.32901,-16.94716 -6.08137,-2.71746 -15.79331,-2.89258 -23.01359,-0.41496 -7.65825,2.6279 -10.75561,1.30959 -18.04571,-7.68072 -6.98396,-8.61277 -15.04644,-15.29324 -24.36989,-20.19258 -29.76358,-15.64032 -67.3819,-15.21521 -96.54004,1.09095 -7.11492,3.97889 -19.35098,15.00657 -23.84266,21.48806 -3.04023,4.38706 -6.97601,6.94419 -10.65629,6.92354 -1.26481,-0.007 -5.15225,-0.9071 -8.63875,-2 -7.66521,-2.40279 -10.80429,-2.47123 -18.19774,-0.39673 -8.70857,2.4435 -14.60566,7.50256 -19.53709,16.76067 -5.5956,10.50501 -7.34058,12.14414 -12.67742,11.90844 -19.52371,-0.86225 -18.99716,-0.90732 -24.04082,2.05738 -6.12445,3.59999 -10.29603,9.3825 -11.72121,16.24755 -0.96982,4.6716 -0.83448,6.5382 0.98224,13.54683 2.71582,10.47718 1.97858,12.89498 -6.06522,19.89127 -7.21676,6.27695 -15.05812,17.13041 -17.96374,24.86418 -2.98945,7.9569 -3.58216,18.09378 -1.52657,26.10866 2.01239,7.84645 4.99063,13.10869 11.42037,20.17859 8.71465,9.5823 8.87611,10.89329 2.73319,22.19213 -16.21881,29.8317 -14.81337,61.0508 4.01164,89.11084 6.11816,9.11956 6.51258,12.34526 2.65618,21.72341 -5.58416,13.57984 -6.73983,19.86135 -6.68211,36.31968 0.0631,17.98614 1.23391,23.10188 9.01127,39.37295 3.1262,6.54036 5.43612,12.75104 5.43612,14.61611 0,1.78374 -2.0478,7.5661 -4.55066,12.8497 -7.23976,15.28328 -9.67007,26.21009 -9.82221,44.16124 -0.17583,20.74656 3.06395,34.99579 11.98786,52.72504 4.05661,8.05931 4.17878,11.11452 0.83372,20.84981 -7.75305,22.56403 -11.11765,45.50256 -10.10989,68.92515 0.63259,14.70279 2.13768,22.97803 7.23844,39.79824 l 2.51646,8.29823 -2.56855,10.18568 c -4.77446,18.93332 -5.24158,34.11617 -1.63687,53.20357 0.6978,3.69496 0.59687,5.81067 -0.38984,8.17222 -2.56415,6.13686 -9.87135,8.74492 -15.19991,5.42509 z M 343.5,231.76815 c 2.2,-2.05252 6.5875,-5.11641 9.75,-6.80864 6.6591,-3.56325 6.43544,-2.52457 4.23307,-19.65829 -1.96426,-15.28123 -4.00095,-26.45285 -7.03556,-38.59129 -3.11278,-12.45113 -3.07383,-13.97741 0.45756,-17.92971 2.44228,-2.73339 3.56545,-3.23402 7.05051,-3.14264 2.76306,0.0724 4.91349,0.83024 6.44862,2.27242 4.18046,3.92734 9.84313,26.26794 13.07652,51.59 2.69644,21.11705 2.25555,19.49821 5.31459,19.51365 1.48758,0.008 3.78985,0.304 5.11617,0.65886 l 2.41147,0.64521 -0.67716,-11.90886 C 388.03285,180.04327 380.69916,153.08922 369.39866,133.9931 364.1926,125.19565 357.04952,117 354.58799,117 c -4.41612,0 -14.71893,17.52006 -19.00949,32.32587 -4.81707,16.62271 -5.97297,25.71884 -5.99467,47.17413 -0.0188,18.57672 0.62823,25.97424 3.53403,40.40525 l 1.08839,5.40524 2.64688,-3.40524 c 1.45578,-1.87289 4.44687,-5.08458 6.64687,-7.1371 z m 286.02747,3.03823 c 5.52655,-26.66842 4.08265,-62.86661 -3.48733,-87.42604 C 621.58458,132.92507 612.15672,117 608.05456,117 c -3.4433,0 -13.0622,12.08602 -18.99513,23.86712 -8.06033,16.00551 -15.03342,44.93517 -16.60325,68.88288 -0.73872,11.26904 -1.05618,10.74044 5.7724,9.61163 3.2286,-0.53371 3.79373,-1.03509 4.21444,-3.739 0.26722,-1.71744 1.65055,-10.92779 3.07407,-20.46744 2.79606,-18.73771 7.41191,-38.13554 10.52814,-44.24385 2.45528,-4.81275 7.41939,-6.5797 12.50978,-4.4528 6.03442,2.52134 6.94019,7.47197 3.57529,19.54146 -1.15002,4.125 -2.78561,11.1 -3.63464,15.5 -1.58044,8.19043 -5.4756,35.64953 -5.48849,38.69136 -0.004,1.05136 2.29549,2.91866 6.07821,4.93483 3.79057,2.02035 8.41005,5.77363 12.25,9.95299 3.39054,3.69023 6.32675,6.55743 6.52491,6.37154 0.19816,-0.18588 0.94839,-3.17584 1.66718,-6.64434 z M 466.5,533.92451 c -11.51961,-1.58961 -22.43935,-4.84802 -32.5,-9.69787 -8.07761,-3.89391 -10.8628,-5.93812 -18.60199,-13.65311 -7.44045,-7.41718 -9.85739,-10.62518 -13.24006,-17.57353 -5.61286,-11.52936 -7.27486,-18.43852 -7.69759,-32 -1.32797,-42.60186 20.385,-77.98751 56.03964,-91.32788 10.59768,-3.96517 24.23254,-6.01195 35.5,-5.32902 31.31862,1.89822 56.81155,18.86664 70.84735,47.1569 7.29075,14.69507 10.15603,27.80862 10.14564,46.43366 -0.0137,24.67017 -6.81603,41.56449 -22.51093,55.90874 -10.0007,9.14008 -19.47549,13.94264 -34.98206,17.73164 -11.5149,2.81364 -31.66249,3.91495 -43,2.35047 z m 34.11329,-22.47223 c 31.23312,-5.4466 48.13518,-29.29712 44.37143,-62.61259 -4.71349,-41.72225 -33.87703,-67.43337 -71.18237,-62.75568 -28.37435,3.55785 -45.56424,18.90522 -54.38129,48.55236 -3.43196,11.5399 -3.93632,30.41578 -1.06401,39.82092 6.11091,20.00969 20.02606,31.96307 43.14295,37.06063 8.32016,1.8347 28.40926,1.80099 39.11329,-0.0656 z m -49.38976,-29.35784 c -7.25849,-2.7018 -11.27215,-5.33865 -16.10227,-10.57871 -5.25444,-5.70039 -5.62138,-10.16945 -1.19818,-14.59265 4.44385,-4.44386 9.44547,-4.0937 15.71804,1.10039 6.20025,5.13421 11.04386,6.55282 15.71282,4.602 4.30602,-1.79916 6.04107,-6.48773 5.44588,-14.71616 -0.41639,-5.7565 -0.5546,-5.99583 -6.64581,-11.50806 -9.66698,-8.74811 -11.61798,-14.66455 -6.51765,-19.76489 L 460.27273,414 h 19.92938 c 12.36366,0 20.69581,0.41018 21.94829,1.08049 1.1104,0.59427 2.63638,2.5583 3.39106,4.3645 2.23821,5.35678 0.43761,9.48068 -7.19197,16.47181 -5.8542,5.36431 -6.64628,6.53668 -7.09279,10.49809 -0.82356,7.30661 0.50859,13.38522 3.34001,15.24043 3.92061,2.56889 9.75987,2.05893 14.53025,-1.26896 8.37142,-5.84002 9.43801,-6.37593 12.69996,-6.3811 2.3483,-0.004 4.18676,0.85457 6.25,2.91782 5.51972,5.51971 3.09464,12.96313 -6.33788,19.4532 C 515.24618,480.84371 506.47783,484 500.55993,484 c -5.10969,0 -12.81191,-2.35197 -16.6789,-5.09311 -2.5974,-1.84118 -2.66502,-1.83152 -8.21302,1.1734 -7.49797,4.06108 -16.87057,4.83335 -24.44448,2.01415 z m -74.59876,-99.54042 c -4.95097,-1.79432 -10.26683,-6.93943 -11.72047,-11.34399 -0.62336,-1.88879 -0.935,-5.82627 -0.69255,-8.74996 1.50044,-18.09334 26.72317,-22.69272 35.0367,-6.38897 1.96281,3.84929 2.29387,11.36333 0.68793,15.6138 -3.32571,8.80222 -14.56075,14.04059 -23.31161,10.86912 z m 196.50213,-0.02 c -15.89401,-5.07277 -17.58742,-27.29178 -2.63182,-34.53166 5.98464,-2.89711 13.73649,-2.45773 18.95753,1.07455 3.94393,2.66825 8.54739,10.74356 8.54739,14.99369 0,3.83717 -2.71519,10.99731 -5.15519,13.59457 -4.67411,4.97536 -12.9677,7.02326 -19.71791,4.86885 z"
       id="path1" />
  </g>
</svg>
